<?xml version="1.0" encoding="utf-8"?>
<!-- Generator: Adobe Illustrator 24.2.0, SVG Export Plug-In . SVG Version: 6.00 Build 0)  -->
<svg version="1.1" id="Logo" xmlns="http://www.w3.org/2000/svg" xmlns:xlink="http://www.w3.org/1999/xlink" x="0px" y="0px"
	 viewBox="0 0 149.1 148.5" style="enable-background:new 0 0 149.1 148.5;" xml:space="preserve">
<style type="text/css">
	.st0{fill:#577590;}
</style>
<g id="Icon">
	<path class="st0" d="M142.9,67.7c3.4-4.5,4.6-10.5,2.8-15.9c-1.8-5.6-6.2-9.7-11.6-11.3c1.4-5.5,0-11.3-3.9-15.7
		c-3.3-3.6-7.9-5.7-12.8-5.7c-0.8,0-1.6,0.1-2.4,0.2c-1-5.6-4.6-10.4-10-12.8c-2.2-1-4.6-1.5-7-1.5c-3.2,0-6.4,0.9-9.2,2.6
		C85.7,2.9,80.3,0,74.5,0c-5.8,0-11.2,3-14.3,7.6C57.5,5.9,54.3,5,51.1,5c-2.4,0-4.8,0.5-7,1.5c-5.4,2.4-9,7.2-10,12.8
		c-0.8-0.1-1.6-0.2-2.4-0.2c-4.9,0-9.6,2.1-12.8,5.7C15,29.2,13.6,35,15,40.5c-5.4,1.6-9.9,5.8-11.6,11.2c-1.8,5.6-0.7,11.5,2.8,16
		c-4.3,3.6-6.7,9.3-6.1,15c0.6,5.8,4,10.8,9.1,13.4c-2.4,5.1-2.3,11.2,0.6,16.2c2.9,5,8.1,8.2,13.7,8.6c-0.2,5.6,2.4,11.2,7.1,14.6
		c3,2.1,6.5,3.3,10.1,3.3c2,0,4-0.4,5.9-1c2.1,5.2,6.8,9.2,12.4,10.4c1.2,0.2,2.4,0.4,3.6,0.4c4.5,0,8.8-1.8,12-4.8
		c3.2,3.1,7.4,4.8,12,4.8c1.2,0,2.4-0.1,3.6-0.4c5.6-1.2,10.3-5.2,12.4-10.4c1.9,0.7,3.9,1,5.9,1c3.7,0,7.2-1.1,10.1-3.3
		c4.7-3.4,7.3-8.9,7.1-14.6c5.7-0.4,10.9-3.6,13.7-8.6c2.9-5.1,3.1-11.1,0.6-16.2c5-2.6,8.4-7.6,9-13.4
		C149.6,76.8,147.3,71.3,142.9,67.7z M143.1,82.1c-0.5,4.7-3.8,8.5-8.3,9.8l-4.4,1.2l2.8,3.5c3,3.7,3.4,8.7,1,12.8
		c-2,3.5-5.8,5.7-9.8,5.7c-0.6,0-1.2,0-1.7-0.1l-4.5-0.7l1.2,4.4c1.2,4.6-0.5,9.3-4.3,12.1c-1.9,1.4-4.2,2.2-6.6,2.2
		c-2.2,0-4.3-0.6-6.2-1.8l-3.8-2.5l-0.7,4.5c-0.7,4.7-4.2,8.3-8.8,9.3c-0.8,0.2-1.6,0.3-2.4,0.3c-3.8,0-7.4-1.9-9.5-5.2l-2.5-3.8
		l-2.5,3.8c-2.1,3.2-5.7,5.2-9.5,5.2c-0.8,0-1.6-0.1-2.4-0.2c-4.6-1-8.1-4.6-8.8-9.3l-0.7-4.5l-3.8,2.5c-1.8,1.2-4,1.8-6.2,1.8
		c-2.4,0-4.7-0.7-6.6-2.2c-3.8-2.8-5.5-7.5-4.3-12.1l1.2-4.4l-4.5,0.7c-0.6,0.1-1.2,0.1-1.8,0.1c-4,0-7.8-2.2-9.8-5.7
		c-2.3-4-1.9-9.2,1-12.8l2.8-3.5l-4.4-1.2c-4.6-1.2-7.8-5.1-8.3-9.8c-0.5-4.7,1.9-9.1,6.1-11.3l4-2.1l-3.5-2.9
		c-3.7-3-5.1-7.8-3.6-12.3c1.5-4.5,5.4-7.6,10.2-7.8l4.5-0.2l-2.1-4c-2.1-4.2-1.5-9.2,1.7-12.7c2.1-2.4,5.2-3.7,8.4-3.7
		c1.4,0,2.8,0.3,4.1,0.7l4.2,1.6l-0.2-4.5c-0.2-4.7,2.4-9,6.7-10.9c1.5-0.7,3-1,4.6-1c3,0,5.9,1.2,8,3.3l3.2,3.2l1.6-4.3
		c1.7-4.4,5.9-7.3,10.6-7.3c4.7,0,8.9,2.9,10.6,7.3l1.6,4.2l3.2-3.2c2.1-2.1,5-3.3,8-3.3c1.6,0,3.1,0.3,4.6,1
		c4.3,1.9,6.9,6.2,6.7,10.9l-0.2,4.5l4.2-1.6c1.3-0.5,2.7-0.7,4.1-0.7c3.2,0,6.3,1.4,8.4,3.7c3.2,3.5,3.8,8.5,1.7,12.7l-2.1,4
		l4.5,0.2c4.7,0.3,8.7,3.3,10.2,7.8c1.5,4.5,0,9.3-3.6,12.3l-3.5,2.9l4,2.1C141.2,72.9,143.6,77.4,143.1,82.1z"/>
	<path class="st0" d="M124.3,53.9c-2.6-1.5-5.6-2.3-8.6-2.3c-4.8,0-9.3,2-12.6,5.4c0,0-2.5,2.6-2.7,5.9c-0.1,8.8-2.4,17.4-6.5,25.1
		l-3.4,5.5c-0.5,0.7-0.9,1.3-1.4,1.9c-3.6,4.3-9,6.8-14.6,6.8c-5.2,0-10-2-13.6-5.7c-1.2-1.4-2.3-3-3.3-4.5L55,87.5
		c-0.2-0.4-0.4-0.7-0.6-1.2l0-0.1c-2.9-5.9-4.7-12.2-5.3-18.6c-1.2,1.5-3.2,3.8-5.2,5.2c1,5.4,2.6,10.6,5.1,15.6l0.3,0.6
		c0.2,0.4,0.4,0.9,0.7,1.3l2.8,4.7l0.1,0.1c1.2,1.8,2.4,3.5,3.8,5.2l0.2,0.2c4.8,4.9,11.1,7.6,17.9,7.6c7.4,0,14.4-3.3,19.2-9
		l0.1-0.1c0.5-0.7,1.1-1.4,1.6-2.2L99,91l0.1-0.1c3.7-6.8,6-14.4,6.9-22.1c0.2-2.9,0.4-4.6,0.6-5.7c0,0,0.4-1.4,1.1-2.4
		c2.1-2.1,5-3.3,8-3.3c2,0,3.9,0.5,5.7,1.5c1.2,0.7,2.3,1.6,3.1,2.7c-2.1,2.6-5.4,4.2-8.8,4.2c-2,0-3.9-0.5-5.7-1.5c0,0,0,0,0,0
		c-0.7,2.2-0.7,4.7-0.7,6.2c2,0.8,4.2,1.2,6.4,1.2c0,0,0,0,0,0c6.1,0,11.9-3.3,15-8.6l0.9-1.5l-0.9-1.5
		C129.1,57.6,126.9,55.4,124.3,53.9z"/>
	<path class="st0" d="M48.8,62.8c3-3.7,6.6-6.6,10.7-8.7c1.2,1.2,2.8,2,4.6,2c1.5,0,2.9-0.5,4.1-1.4c1.7,1.6,4,2.6,6.5,2.6
		c2.5,0,4.8-1,6.4-2.6c1.1,0.8,2.5,1.3,3.9,1.3c1.8,0,3.4-0.7,4.6-1.9c3,1.5,5.7,3.5,8.1,5.9c0.7-1.6,1.8-3.6,3.2-5.1
		c-2.9-2.7-6.1-4.8-9.6-6.5c-0.6-3-3.2-5.3-6.4-5.3c-0.7,0-1.4,0.1-2,0.3c-1.6-3-4.7-5-8.4-5c-3.7,0-6.8,2.1-8.4,5.1
		c-0.7-0.3-1.4-0.4-2.2-0.4c-3.2,0-5.8,2.3-6.4,5.3c-4.4,2.1-8.4,5-11.8,8.7c0,0-1.4,1.9-3.7,4.7c-2.1,2.6-5.4,4.2-8.8,4.2
		c-2,0-3.9-0.5-5.7-1.5c-1.2-0.7-2.3-1.6-3.1-2.7c2.1-2.6,5.4-4.2,8.8-4.2c2,0,3.9,0.5,5.7,1.5c0.2,0.1,0.3,0.2,0.5,0.3
		c0.9-1.2,2.5-3.2,3.7-4.6c-0.4-0.3-0.8-0.5-1.2-0.8c-2.6-1.5-5.6-2.3-8.6-2.3c-6.1,0-11.9,3.3-15,8.6l-0.9,1.5l0.9,1.5
		c1.5,2.6,3.7,4.8,6.3,6.3c2.6,1.5,5.6,2.3,8.6,2.3c0,0,0,0,0,0c3,0,5.9-0.8,8.5-2.3c1.1-0.7,1.8-1.2,2.1-1.5
		C44.8,67.3,46.3,65.8,48.8,62.8z"/>
	<path class="st0" d="M74.7,94.6c4.7,0,8.6-2.4,9.4-5.6H65.3C66.1,92.2,70,94.6,74.7,94.6z"/>
</g>
</svg>
