<?xml version="1.0" encoding="utf-8"?>
<!-- Generator: Adobe Illustrator 16.0.0, SVG Export Plug-In . SVG Version: 6.00 Build 0)  -->
<!DOCTYPE svg PUBLIC "-//W3C//DTD SVG 1.1//EN" "http://www.w3.org/Graphics/SVG/1.1/DTD/svg11.dtd">
<svg version="1.1" id="Logo" xmlns="http://www.w3.org/2000/svg" xmlns:xlink="http://www.w3.org/1999/xlink" x="0px" y="0px"
	 width="197.935px" height="68.722px" viewBox="0 0 197.935 68.722" enable-background="new 0 0 197.935 68.722"
	 xml:space="preserve">
<g id="Name">
	<g>
		<rect x="150.324" y="21.309" fill="#FFFFFF" width="3.793" height="3.499"/>
		<rect x="142.594" y="21.309" fill="#FFFFFF" width="3.793" height="22.131"/>
		<path fill="#FFFFFF" d="M190.972,33.411c-2.14-0.333-3.543-0.637-3.543-1.753c0-0.797,0.946-1.596,3.063-1.596
			c1.482,0,2.58,0.521,2.98,1.403h3.983c-0.662-2.89-3.357-4.74-6.964-4.74c-4.756,0-6.922,2.658-6.922,5.128
			c0,3.284,3.267,4.232,6.797,4.771c2.762,0.428,3.742,0.802,3.742,2.047c0,1.084-1.26,1.758-3.292,1.758
			c-1.319,0-3.061-0.516-3.756-1.958h-3.902c0.622,3.268,3.592,5.359,7.658,5.359c4.189,0,7.117-2.228,7.117-5.419
			C197.935,35.17,195.488,34.154,190.972,33.411z"/>
		<path fill="#FFFFFF" d="M164.741,33.411c-2.14-0.334-3.543-0.637-3.543-1.753c0-0.797,0.946-1.596,3.062-1.596
			c1.484,0,2.58,0.521,2.981,1.403h3.982c-0.661-2.89-3.357-4.74-6.964-4.74c-4.754,0-6.92,2.658-6.92,5.128
			c0,3.284,3.266,4.232,6.797,4.771c2.762,0.428,3.741,0.802,3.741,2.047c0,1.084-1.261,1.758-3.291,1.758
			c-1.317,0-3.062-0.516-3.757-1.958h-3.9c0.62,3.268,3.591,5.359,7.657,5.359c4.191,0,7.117-2.228,7.117-5.419
			C171.704,35.17,169.258,34.154,164.741,33.411z"/>
		<path fill="#FFFFFF" d="M181.328,43.431v-3.413c-2.191,0.046-3.229-1.051-3.229-3.368v-6.196h3.033v-3.304h-3.033v-4.271h-3.793
			v13.739C174.306,41.204,176.949,43.799,181.328,43.431z"/>
		<rect x="150.324" y="27.149" fill="#FFFFFF" width="3.793" height="16.29"/>
		<path fill="#FFFFFF" d="M120.418,27.149h-3.793v9.565c0,2.001-1.48,3.455-3.52,3.455c-3.176,0-3.422-2.645-3.422-3.455v-9.565
			h-3.794v9.565c0,2.033-1.447,3.455-3.52,3.455c-3.146,0-3.39-2.645-3.39-3.455v-9.565h-3.793v9.434
			c0,4.424,2.818,7.282,7.183,7.282c2.044,0,3.876-0.815,5.157-2.294l0.197-0.228l0.193,0.23c1.248,1.478,3.09,2.291,5.188,2.291
			c4.305,0,7.313-2.995,7.313-7.282V27.149z"/>
		<path fill="#FFFFFF" d="M87.938,38.604c-0.728,1.229-2.101,1.958-3.708,1.958c-2.164,0-3.872-1.35-4.458-3.52l-0.087-0.323h12.792
			c0.234-3.036-0.521-5.604-2.192-7.438c-1.501-1.647-3.64-2.556-6.022-2.556c-4.609,0-8.358,3.853-8.358,8.587
			c0,4.695,3.749,8.519,8.358,8.519c3.754,0,6.703-1.993,7.776-5.228H87.938z M79.841,33.375c0.659-2.084,2.341-3.379,4.389-3.379
			c2.159,0,3.908,1.332,4.458,3.391l0.086,0.322h-9.039L79.841,33.375z"/>
		<path fill="#FFFFFF" d="M135.113,38.604c-0.727,1.229-2.099,1.958-3.707,1.958c-2.164,0-3.871-1.35-4.456-3.52l-0.087-0.323
			h12.792c0.233-3.037-0.522-5.604-2.194-7.439c-1.5-1.646-3.639-2.554-6.021-2.554c-4.607,0-8.357,3.853-8.357,8.587
			c0,4.695,3.75,8.519,8.357,8.519c3.813,0,6.696-1.946,7.778-5.228H135.113z M127.018,33.375c0.66-2.084,2.342-3.379,4.389-3.379
			c2.16,0,3.91,1.332,4.459,3.391l0.086,0.322h-9.039L127.018,33.375z"/>
	</g>
</g>
<g id="Icon">
	<path fill="#FFFFFF" d="M66.111,31.314c1.595-2.063,2.125-4.842,1.3-7.374c-0.837-2.579-2.863-4.493-5.386-5.208
		c0.641-2.543-0.002-5.252-1.817-7.268c-1.51-1.678-3.672-2.64-5.932-2.64c-0.373,0-0.742,0.026-1.107,0.076
		c-0.448-2.585-2.138-4.801-4.616-5.905c-1.03-0.458-2.12-0.69-3.239-0.69c-1.498,0-2.974,0.433-4.238,1.22
		C39.607,1.364,37.127,0,34.46,0c-2.677,0-5.162,1.371-6.627,3.54c-1.267-0.791-2.747-1.227-4.249-1.227
		c-1.122,0-2.213,0.234-3.244,0.694c-2.478,1.105-4.167,3.324-4.612,5.909c-0.364-0.05-0.732-0.075-1.103-0.075
		c-2.261,0-4.424,0.962-5.934,2.644c-1.814,2.019-2.455,4.731-1.809,7.276c-2.505,0.73-4.564,2.669-5.386,5.204
		c-0.836,2.583-0.318,5.323,1.306,7.384C0.813,33.036-0.28,35.645,0,38.294c0.286,2.699,1.874,4.992,4.196,6.216
		c-1.132,2.35-1.07,5.177,0.264,7.482c1.329,2.298,3.73,3.782,6.361,3.966c-0.08,2.61,1.126,5.169,3.284,6.736
		c1.371,0.994,2.989,1.521,4.679,1.521c0.944,0,1.872-0.166,2.746-0.484c0.988,2.417,3.131,4.264,5.739,4.816
		c0.546,0.116,1.105,0.175,1.661,0.175c2.097,0,4.07-0.815,5.543-2.241c1.471,1.424,3.442,2.237,5.536,2.237
		c0.557,0,1.118-0.059,1.667-0.177c2.608-0.554,4.75-2.404,5.735-4.82c0.874,0.318,1.8,0.481,2.742,0.481
		c1.692,0,3.311-0.527,4.682-1.523c2.195-1.598,3.388-4.118,3.287-6.739c2.629-0.19,5.025-1.674,6.351-3.97
		c1.354-2.349,1.42-5.134,0.265-7.489c2.318-1.225,3.901-3.517,4.183-6.212C69.203,35.568,68.127,32.992,66.111,31.314z
		 M66.197,37.981c-0.229,2.172-1.742,3.945-3.856,4.517l-2.027,0.549l1.319,1.632c1.375,1.706,1.557,4.029,0.466,5.922
		c-0.932,1.617-2.676,2.621-4.55,2.621c-0.27,0-0.542-0.021-0.809-0.062l-2.075-0.324l0.541,2.027
		c0.563,2.117-0.215,4.314-1.982,5.6c-0.9,0.656-1.962,1.002-3.072,1.002c-1.021,0-2.01-0.292-2.864-0.844l-1.763-1.14l-0.332,2.072
		c-0.346,2.164-1.951,3.855-4.088,4.311c-0.36,0.075-0.729,0.116-1.096,0.116c-1.774,0-3.417-0.893-4.392-2.387l-1.147-1.756
		l-1.146,1.757c-0.974,1.496-2.618,2.39-4.394,2.39c-0.364,0-0.732-0.039-1.093-0.114c-2.137-0.455-3.742-2.144-4.09-4.307
		l-0.334-2.072l-1.762,1.141c-0.854,0.552-1.845,0.845-2.866,0.845c-1.109,0-2.171-0.345-3.071-0.998
		c-1.767-1.283-2.546-3.481-1.986-5.598l0.538-2.028l-2.073,0.326c-0.267,0.042-0.541,0.062-0.813,0.062
		c-1.872,0-3.615-1.004-4.549-2.618c-1.077-1.861-0.891-4.241,0.462-5.919l1.317-1.637l-2.026-0.545
		c-2.114-0.571-3.629-2.344-3.859-4.516c-0.229-2.172,0.881-4.222,2.829-5.222l1.868-0.958l-1.628-1.322
		c-1.7-1.38-2.363-3.615-1.689-5.694c0.673-2.078,2.521-3.498,4.708-3.618l2.096-0.116l-0.95-1.872
		c-0.992-1.951-0.689-4.264,0.771-5.889c0.992-1.104,2.413-1.734,3.898-1.734c0.645,0,1.276,0.116,1.876,0.344l1.961,0.747
		l-0.107-2.097c-0.112-2.187,1.105-4.176,3.101-5.067c0.677-0.302,1.393-0.454,2.128-0.454c1.386,0,2.744,0.563,3.725,1.546
		l1.493,1.495l0.755-1.973c0.773-2.023,2.744-3.383,4.903-3.383c2.184,0,4.105,1.32,4.895,3.363l0.755,1.959l1.486-1.482
		c0.98-0.976,2.335-1.535,3.716-1.535c0.733,0,1.448,0.153,2.125,0.455c1.996,0.889,3.213,2.875,3.104,5.063l-0.106,2.097
		l1.961-0.749c0.6-0.229,1.232-0.345,1.878-0.345c1.486,0,2.906,0.632,3.898,1.733c1.461,1.622,1.766,3.934,0.775,5.888L58,21.055
		l2.096,0.114c2.188,0.12,4.037,1.538,4.713,3.618c0.675,2.077,0.014,4.311-1.686,5.694l-1.626,1.323l1.867,0.957
		C65.312,33.759,66.424,35.808,66.197,37.981z"/>
	<path fill="#FFFFFF" d="M57.489,24.945c-1.214-0.7-2.592-1.069-3.985-1.069c-2.222,0-4.322,0.934-5.815,2.513
		c0,0-1.18,1.226-1.248,2.736c-0.061,4.054-1.099,8.059-3.013,11.608l-1.563,2.525c-0.22,0.314-0.432,0.603-0.646,0.883
		c-1.683,2.012-4.148,3.165-6.767,3.165c-2.389,0-4.622-0.939-6.295-2.646c-0.544-0.671-1.06-1.376-1.532-2.1l-1.213-2.063
		c-0.088-0.169-0.174-0.342-0.271-0.536l-0.021-0.04c-1.348-2.729-2.168-5.623-2.465-8.624c-0.569,0.711-1.485,1.755-2.429,2.419
		c0.445,2.49,1.222,4.907,2.343,7.22l0.133,0.271c0.1,0.2,0.2,0.4,0.304,0.597l1.276,2.173l0.032,0.054
		c0.542,0.828,1.133,1.637,1.758,2.407l0.077,0.085c2.198,2.271,5.146,3.521,8.302,3.521c3.443,0,6.682-1.52,8.887-4.17l0.032-0.041
		c0.254-0.328,0.501-0.667,0.758-1.036l1.647-2.655l0.041-0.069c1.71-3.159,2.791-6.645,3.188-10.223
		c0.091-1.328,0.188-2.132,0.267-2.614c0.005-0.022,0.162-0.665,0.529-1.095c0.973-0.961,2.301-1.527,3.704-1.527
		c0.913,0,1.819,0.243,2.617,0.705c0.555,0.319,1.046,0.741,1.449,1.239c-0.989,1.213-2.488,1.94-4.08,1.94
		c-0.915,0-1.821-0.243-2.618-0.704c-0.003-0.002-0.007-0.006-0.011-0.007c-0.312,1.011-0.342,2.193-0.325,2.876
		c0.937,0.374,1.941,0.572,2.954,0.572c2.845,0,5.497-1.53,6.921-3.989l0.396-0.685l-0.395-0.685
		C59.711,26.656,58.7,25.644,57.489,24.945z"/>
	<path fill="#FFFFFF" d="M22.521,29.054c1.375-1.701,3.06-3.055,4.939-4.018c0.544,0.558,1.303,0.905,2.144,0.905
		c0.71,0,1.362-0.248,1.876-0.662c0.786,0.756,1.852,1.223,3.027,1.223c1.156,0,2.203-0.451,2.984-1.185
		c0.506,0.391,1.136,0.624,1.825,0.624c0.838,0,1.596-0.346,2.14-0.9c1.366,0.701,2.628,1.609,3.741,2.708
		c0.345-0.758,0.842-1.647,1.497-2.345c-1.331-1.234-2.826-2.245-4.436-3.016c-0.261-1.391-1.478-2.443-2.943-2.443
		c-0.331,0-0.647,0.057-0.944,0.154c-0.732-1.389-2.187-2.336-3.866-2.336c-1.69,0-3.153,0.961-3.88,2.365
		c-0.319-0.115-0.663-0.184-1.023-0.184c-1.461,0-2.677,1.048-2.941,2.433c-2.027,0.969-3.872,2.316-5.438,4.005
		c0,0-0.636,0.878-1.728,2.174c-0.989,1.213-2.489,1.94-4.081,1.94c-0.915,0-1.82-0.243-2.617-0.704
		c-0.555-0.32-1.047-0.742-1.45-1.24c0.99-1.213,2.49-1.941,4.082-1.941c0.914,0,1.818,0.244,2.617,0.705
		c0.075,0.044,0.147,0.094,0.219,0.141c0.428-0.568,1.142-1.498,1.717-2.146c-0.184-0.13-0.372-0.253-0.568-0.366
		c-1.213-0.7-2.592-1.07-3.985-1.07c-2.845,0-5.498,1.529-6.923,3.989l-0.395,0.684l0.394,0.686c0.702,1.22,1.713,2.232,2.924,2.93
		c1.213,0.701,2.591,1.071,3.984,1.071c0.001,0,0.001,0,0.001,0c1.4,0,2.75-0.375,3.933-1.045c0.53-0.316,0.835-0.571,0.961-0.687
		C20.681,31.152,21.367,30.442,22.521,29.054z"/>
	<path fill="#FFFFFF" d="M34.507,43.784c2.175,0,3.977-1.116,4.33-2.581h-8.66C30.53,42.668,32.331,43.784,34.507,43.784z"/>
</g>
</svg>
