<?xml version="1.0" encoding="utf-8"?>
<!-- Generator: Adobe Illustrator 24.2.0, SVG Export Plug-In . SVG Version: 6.00 Build 0)  -->
<svg version="1.1" id="Logo" xmlns="http://www.w3.org/2000/svg" xmlns:xlink="http://www.w3.org/1999/xlink" x="0px" y="0px"
	 viewBox="0 0 204 68.7" style="enable-background:new 0 0 204 68.7;" xml:space="preserve">
<style type="text/css">
	.st0{fill:none;}
	.st1{enable-background:new    ;}
	.st2{fill:#FFFFFF;}
</style>
<rect x="76.4" y="18" class="st0" width="127.6" height="32"/>
<g class="st1">
	<path class="st2" d="M86.1,43.9c-2.4,0-4.4-0.8-5.9-2.4c-1.5-1.6-2.3-3.7-2.3-6.4v-0.6c0-1.8,0.3-3.4,1-4.8
		c0.7-1.4,1.6-2.5,2.9-3.3c1.2-0.8,2.5-1.2,4-1.2c2.3,0,4.2,0.8,5.4,2.3s1.9,3.7,1.9,6.6v1.3H81c0,1.8,0.6,3.2,1.6,4.3
		c1,1.1,2.2,1.6,3.8,1.6c1.1,0,2-0.2,2.8-0.7c0.8-0.4,1.4-1,2-1.8l1.9,1.5C91.4,42.7,89.1,43.9,86.1,43.9z M85.8,27.8
		c-1.2,0-2.3,0.5-3.1,1.4c-0.8,0.9-1.4,2.2-1.6,3.8h9v-0.2c-0.1-1.6-0.5-2.8-1.3-3.6C88.1,28.2,87,27.8,85.8,27.8z"/>
	<path class="st2" d="M112.6,39.3l3.5-13.7h3.1l-5.2,18h-2.5L107,29.9l-4.2,13.6h-2.5l-5.2-18h3.1l3.5,13.4l4.2-13.4h2.5L112.6,39.3
		z"/>
	<path class="st2" d="M129.7,43.9c-2.4,0-4.4-0.8-5.9-2.4c-1.5-1.6-2.3-3.7-2.3-6.4v-0.6c0-1.8,0.3-3.4,1-4.8
		c0.7-1.4,1.6-2.5,2.9-3.3c1.2-0.8,2.5-1.2,4-1.2c2.3,0,4.2,0.8,5.4,2.3s1.9,3.7,1.9,6.6v1.3h-12.2c0,1.8,0.6,3.2,1.6,4.3
		c1,1.1,2.2,1.6,3.8,1.6c1.1,0,2-0.2,2.8-0.7c0.8-0.4,1.4-1,2-1.8l1.9,1.5C135,42.7,132.7,43.9,129.7,43.9z M129.3,27.8
		c-1.2,0-2.3,0.5-3.1,1.4c-0.8,0.9-1.4,2.2-1.6,3.8h9v-0.2c-0.1-1.6-0.5-2.8-1.3-3.6C131.6,28.2,130.6,27.8,129.3,27.8z"/>
	<path class="st2" d="M143.6,43.5h-3.1V18h3.1V43.5z"/>
	<path class="st2" d="M148.5,20.8c0-0.5,0.2-0.9,0.5-1.3s0.8-0.5,1.4-0.5s1.1,0.2,1.4,0.5c0.3,0.3,0.5,0.8,0.5,1.3s-0.2,0.9-0.5,1.2
		c-0.3,0.3-0.8,0.5-1.4,0.5s-1-0.2-1.4-0.5S148.5,21.3,148.5,20.8z M151.8,43.5h-3.1v-18h3.1V43.5z"/>
	<path class="st2" d="M167.2,38.8c0-0.8-0.3-1.5-0.9-1.9c-0.6-0.5-1.7-0.9-3.3-1.2s-2.8-0.7-3.7-1.2s-1.6-1-2-1.7s-0.7-1.4-0.7-2.3
		c0-1.5,0.6-2.7,1.9-3.7s2.8-1.5,4.8-1.5c2,0,3.7,0.5,5,1.6s1.9,2.4,1.9,4H167c0-0.8-0.4-1.6-1.1-2.2s-1.6-0.9-2.7-0.9
		c-1.1,0-2,0.2-2.6,0.7s-0.9,1.1-0.9,1.9c0,0.7,0.3,1.3,0.9,1.7c0.6,0.4,1.6,0.7,3.2,1.1s2.8,0.8,3.7,1.2c1,0.5,1.7,1,2.1,1.7
		c0.5,0.7,0.7,1.5,0.7,2.4c0,1.6-0.6,2.9-1.9,3.9c-1.3,1-3,1.5-5,1.5c-1.4,0-2.7-0.3-3.8-0.8c-1.1-0.5-2-1.2-2.6-2.1
		c-0.6-0.9-0.9-1.9-0.9-3h3.1c0.1,1,0.5,1.8,1.2,2.4c0.8,0.6,1.8,0.9,3,0.9c1.2,0,2.1-0.2,2.8-0.7C166.9,40.2,167.2,39.6,167.2,38.8
		z"/>
	<path class="st2" d="M178.5,21.2v4.3h3.4V28h-3.4v11.2c0,0.7,0.1,1.3,0.4,1.6s0.8,0.5,1.5,0.5c0.4,0,0.8-0.1,1.5-0.2v2.5
		c-0.8,0.2-1.6,0.3-2.4,0.3c-1.4,0-2.4-0.4-3.1-1.2s-1-2-1-3.5V28h-3.3v-2.4h3.3v-4.3H178.5z"/>
	<path class="st2" d="M195.9,38.8c0-0.8-0.3-1.5-0.9-1.9c-0.6-0.5-1.7-0.9-3.3-1.2s-2.8-0.7-3.7-1.2s-1.6-1-2-1.7s-0.7-1.4-0.7-2.3
		c0-1.5,0.6-2.7,1.9-3.7s2.8-1.5,4.8-1.5c2,0,3.7,0.5,5,1.6s1.9,2.4,1.9,4h-3.1c0-0.8-0.4-1.6-1.1-2.2s-1.6-0.9-2.7-0.9
		c-1.1,0-2,0.2-2.6,0.7s-0.9,1.1-0.9,1.9c0,0.7,0.3,1.3,0.9,1.7c0.6,0.4,1.6,0.7,3.2,1.1s2.8,0.8,3.7,1.2c1,0.5,1.7,1,2.1,1.7
		c0.5,0.7,0.7,1.5,0.7,2.4c0,1.6-0.6,2.9-1.9,3.9c-1.3,1-3,1.5-5,1.5c-1.4,0-2.7-0.3-3.8-0.8c-1.1-0.5-2-1.2-2.6-2.1
		c-0.6-0.9-0.9-1.9-0.9-3h3.1c0.1,1,0.5,1.8,1.2,2.4c0.8,0.6,1.8,0.9,3,0.9c1.2,0,2.1-0.2,2.8-0.7C195.5,40.2,195.9,39.6,195.9,38.8
		z"/>
</g>
<g id="Icon">
	<path class="st2" d="M66.2,31.3c1.6-2.1,2.1-4.8,1.3-7.4c-0.8-2.6-2.9-4.5-5.4-5.2c0.6-2.5,0-5.3-1.8-7.3c-1.5-1.7-3.7-2.6-5.9-2.6
		c-0.4,0-0.7,0-1.1,0.1c-0.4-2.6-2.1-4.8-4.6-5.9c-1-0.5-2.1-0.7-3.2-0.7c-1.5,0-3,0.4-4.2,1.2C39.7,1.4,37.2,0,34.5,0
		s-5.2,1.4-6.6,3.5c-1.3-0.8-2.7-1.2-4.2-1.2c-1.1,0-2.2,0.2-3.2,0.7c-2.5,1.1-4.2,3.3-4.6,5.9c-0.4-0.1-0.7-0.1-1.1-0.1
		c-2.3,0-4.4,1-5.9,2.6c-1.8,2-2.5,4.7-1.8,7.3c-2.5,0.7-4.6,2.7-5.4,5.2c-0.8,2.6-0.3,5.3,1.3,7.4c-2,1.7-3.1,4.3-2.8,6.9
		c0.3,2.7,1.9,5,4.2,6.2c-1.1,2.3-1.1,5.2,0.3,7.5c1.3,2.3,3.7,3.8,6.4,4c-0.1,2.6,1.1,5.2,3.3,6.7c1.4,1,3,1.5,4.7,1.5
		c0.9,0,1.9-0.2,2.7-0.5c1,2.4,3.1,4.3,5.7,4.8c0.5,0.1,1.1,0.2,1.7,0.2c2.1,0,4.1-0.8,5.5-2.2c1.5,1.4,3.4,2.2,5.5,2.2
		c0.6,0,1.1-0.1,1.7-0.2c2.6-0.6,4.8-2.4,5.7-4.8c0.9,0.3,1.8,0.5,2.7,0.5c1.7,0,3.3-0.5,4.7-1.5c2.2-1.6,3.4-4.1,3.3-6.7
		c2.6-0.2,5-1.7,6.4-4s1.4-5.1,0.3-7.5c2.3-1.2,3.9-3.5,4.2-6.2C69.2,35.6,68.2,33,66.2,31.3z M66.2,38c-0.2,2.2-1.7,3.9-3.9,4.5
		l-2,0.5l1.3,1.6c1.4,1.7,1.6,4,0.5,5.9c-0.9,1.6-2.7,2.6-4.5,2.6c-0.3,0-0.5,0-0.8-0.1l-2.1-0.3l0.5,2c0.6,2.1-0.2,4.3-2,5.6
		c-0.9,0.7-2,1-3.1,1c-1,0-2-0.3-2.9-0.8l-1.8-1.1l-0.3,2.1c-0.3,2.2-2,3.9-4.1,4.3c-0.4,0.1-0.7,0.1-1.1,0.1
		c-1.8,0-3.4-0.9-4.4-2.4l-1.1-1.8l-1.1,1.8c-1,1.5-2.6,2.4-4.4,2.4c-0.4,0-0.7,0-1.1-0.1c-2.1-0.5-3.7-2.1-4.1-4.3l-0.3-2.1
		l-1.8,1.1c-0.9,0.6-1.8,0.8-2.9,0.8s-2.2-0.3-3.1-1c-1.8-1.3-2.5-3.5-2-5.6l0.5-2L12,53c-0.3,0-0.5,0.1-0.8,0.1
		c-1.9,0-3.6-1-4.5-2.6c-1.1-1.9-0.9-4.2,0.5-5.9L8.5,43l-2-0.5C4.5,42,3,40.2,2.8,38s0.9-4.2,2.8-5.2l1.9-1l-1.6-1.3
		c-1.7-1.4-2.4-3.6-1.7-5.7s2.5-3.5,4.7-3.6l2.1-0.1l-1-1.9c-1-2-0.7-4.3,0.8-5.9c1-1.1,2.4-1.7,3.9-1.7c0.6,0,1.3,0.1,1.9,0.3
		l2,0.7l-0.1-2.1c-0.1-2.2,1.1-4.2,3.1-5.1c0.7-0.3,1.4-0.5,2.1-0.5c1.4,0,2.7,0.6,3.7,1.5l1.5,1.5l0.8-2c0.8-2,2.7-3.4,4.9-3.4
		s4.1,1.3,4.9,3.4l0.8,2l1.5-1.5c1-1,2.3-1.5,3.7-1.5c0.7,0,1.4,0.2,2.1,0.5c2,0.9,3.2,2.9,3.1,5.1l-0.1,2.1l2-0.7
		c0.6-0.2,1.2-0.3,1.9-0.3c1.5,0,2.9,0.6,3.9,1.7c1.5,1.6,1.8,3.9,0.8,5.9L58,21.1l2.1,0.1c2.2,0.1,4,1.5,4.7,3.6s0,4.3-1.7,5.7
		l-1.6,1.3l1.9,1C65.4,33.8,66.5,35.8,66.2,38z"/>
	<path class="st2" d="M57.5,24.9c-1.2-0.7-2.6-1.1-4-1.1c-2.2,0-4.3,0.9-5.8,2.5c0,0-1.2,1.2-1.2,2.7c-0.1,4.1-1.1,8.1-3,11.6
		l-1.6,2.5c-0.2,0.3-0.4,0.6-0.6,0.9c-1.7,2-4.1,3.2-6.8,3.2c-2.4,0-4.6-0.9-6.3-2.6c-0.5-0.7-1.1-1.4-1.5-2.1l-1.2-2.1
		c-0.1-0.2-0.2-0.3-0.3-0.5l0,0c-1.3-2.7-2.2-5.6-2.5-8.6c-0.6,0.7-1.5,1.8-2.4,2.4c0.4,2.5,1.2,4.9,2.3,7.2l0.1,0.3
		c0.1,0.2,0.2,0.4,0.3,0.6l1.3,2.2v0.1c0.5,0.8,1.1,1.6,1.8,2.4l0.1,0.1c2.2,2.3,5.1,3.5,8.3,3.5c3.4,0,6.7-1.5,8.9-4.2l0,0
		c0.3-0.3,0.5-0.7,0.8-1l1.6-2.7v-0.1c1.7-3.2,2.8-6.6,3.2-10.2c0.1-1.3,0.2-2.1,0.3-2.6c0,0,0.2-0.7,0.5-1.1c1-1,2.3-1.5,3.7-1.5
		c0.9,0,1.8,0.2,2.6,0.7c0.6,0.3,1,0.7,1.4,1.2c-1,1.2-2.5,1.9-4.1,1.9c-0.9,0-1.8-0.2-2.6-0.7l0,0c-0.3,1-0.3,2.2-0.3,2.9
		c0.9,0.4,1.9,0.6,3,0.6c2.8,0,5.5-1.5,6.9-4l0.4-0.7l-0.4-0.7C59.8,26.7,58.7,25.6,57.5,24.9z"/>
	<path class="st2" d="M22.6,29.1c1.4-1.7,3.1-3.1,4.9-4c0.5,0.6,1.3,0.9,2.1,0.9c0.7,0,1.4-0.2,1.9-0.7c0.8,0.8,1.9,1.2,3,1.2
		c1.2,0,2.2-0.5,3-1.2c0.5,0.4,1.1,0.6,1.8,0.6c0.8,0,1.6-0.3,2.1-0.9c1.4,0.7,2.6,1.6,3.7,2.7c0.3-0.8,0.8-1.6,1.5-2.3
		c-1.3-1.2-2.8-2.2-4.4-3C41.9,21,40.7,20,39.3,20c-0.3,0-0.6,0.1-0.9,0.2c-0.7-1.4-2.2-2.3-3.9-2.3s-3.2,1-3.9,2.4
		c-0.3-0.1-0.7-0.2-1-0.2c-1.5,0-2.7,1-2.9,2.4c-2,1-3.9,2.3-5.4,4c0,0-0.6,0.9-1.7,2.2c-1,1.2-2.5,1.9-4.1,1.9
		c-0.9,0-1.8-0.2-2.6-0.7c-0.6-0.3-1-0.7-1.4-1.2c1-1.2,2.5-1.9,4.1-1.9c0.9,0,1.8,0.2,2.6,0.7c0.1,0,0.1,0.1,0.2,0.1
		c0.4-0.6,1.1-1.5,1.7-2.1c-0.2-0.1-0.4-0.3-0.6-0.4c-1.2-0.7-2.6-1.1-4-1.1c-2.8,0-5.5,1.5-6.9,4l-0.4,0.7l0.4,0.7
		c0.7,1.2,1.7,2.2,2.9,2.9c1.2,0.7,2.6,1.1,4,1.1l0,0c1.4,0,2.7-0.4,3.9-1c0.5-0.3,0.8-0.6,1-0.7C20.7,31.2,21.4,30.4,22.6,29.1z"/>
	<path class="st2" d="M34.6,43.8c2.2,0,4-1.1,4.3-2.6h-8.7C30.6,42.7,32.4,43.8,34.6,43.8z"/>
</g>
</svg>
