<svg id="Logo" xmlns="http://www.w3.org/2000/svg" viewBox="0 0 200.19 68.72"><defs><style>.cls-1{isolation:isolate;}.cls-2{fill:#577590;}</style></defs><g class="cls-1"><path class="cls-2" d="M85.73,44.2a7.86,7.86,0,0,1-6-2.4,8.94,8.94,0,0,1-2.29-6.42v-.56a10.75,10.75,0,0,1,1-4.77,8,8,0,0,1,2.86-3.29,7.19,7.19,0,0,1,4-1.19,6.71,6.71,0,0,1,5.44,2.31c1.3,1.54,1.94,3.74,1.94,6.61v1.27H80.56a6.42,6.42,0,0,0,1.56,4.29,4.85,4.85,0,0,0,3.77,1.64A5.37,5.37,0,0,0,88.65,41a7,7,0,0,0,2-1.76l1.88,1.46A7.54,7.54,0,0,1,85.73,44.2Zm-.38-16.11a4.13,4.13,0,0,0-3.13,1.36,6.56,6.56,0,0,0-1.56,3.79h9V33a5.89,5.89,0,0,0-1.26-3.63A3.84,3.84,0,0,0,85.35,28.09Z"/><path class="cls-2" d="M112.19,39.63l3.45-13.73h3.07l-5.23,18H111l-4.36-13.62-4.25,13.62H99.89l-5.21-18h3l3.54,13.45,4.18-13.45h2.47Z"/><path class="cls-2" d="M129.29,44.2a7.82,7.82,0,0,1-5.94-2.4,8.9,8.9,0,0,1-2.29-6.42v-.56a10.61,10.61,0,0,1,1-4.77,8,8,0,0,1,2.85-3.29,7.19,7.19,0,0,1,4-1.19,6.71,6.71,0,0,1,5.44,2.31q2,2.31,2,6.61v1.27H124.13a6.36,6.36,0,0,0,1.55,4.29,4.85,4.85,0,0,0,3.78,1.64,5.36,5.36,0,0,0,2.75-.66,7.17,7.17,0,0,0,2-1.76l1.87,1.46A7.54,7.54,0,0,1,129.29,44.2Zm-.38-16.11a4.11,4.11,0,0,0-3.12,1.36,6.5,6.5,0,0,0-1.56,3.79h9V33A5.83,5.83,0,0,0,132,29.38,3.84,3.84,0,0,0,128.91,28.09Z"/><path class="cls-2" d="M143.18,43.87h-3.07V18.37h3.07Z"/><path class="cls-2" d="M148.12,21.14a1.84,1.84,0,0,1,.45-1.26,2,2,0,0,1,2.72,0,1.8,1.8,0,0,1,.46,1.26,1.73,1.73,0,0,1-.46,1.24,1.81,1.81,0,0,1-3.17-1.24Zm3.32,22.73h-3.08v-18h3.08Z"/><path class="cls-2" d="M166.81,39.1a2.24,2.24,0,0,0-.94-1.93A9,9,0,0,0,162.6,36a15.14,15.14,0,0,1-3.7-1.2,5.14,5.14,0,0,1-2-1.66,3.93,3.93,0,0,1-.65-2.29,4.66,4.66,0,0,1,1.86-3.73,7.31,7.31,0,0,1,4.78-1.53,7.5,7.5,0,0,1,4.95,1.58,5,5,0,0,1,1.9,4h-3.08A2.78,2.78,0,0,0,165.56,29a4,4,0,0,0-2.7-.92,4.28,4.28,0,0,0-2.63.73,2.31,2.31,0,0,0-.94,1.91,1.86,1.86,0,0,0,.88,1.68,10.48,10.48,0,0,0,3.18,1.08,16.15,16.15,0,0,1,3.72,1.23,5.34,5.34,0,0,1,2.12,1.72,4.2,4.2,0,0,1,.69,2.44A4.57,4.57,0,0,1,168,42.74a8.06,8.06,0,0,1-5,1.46,9,9,0,0,1-3.82-.77,6.25,6.25,0,0,1-2.6-2.13,5.17,5.17,0,0,1-.94-3h3.07a3.21,3.21,0,0,0,1.24,2.45,5.72,5.72,0,0,0,5.84.19A2.15,2.15,0,0,0,166.81,39.1Z"/><path class="cls-2" d="M178.05,21.55V25.9h3.35v2.38h-3.35V39.43a2.48,2.48,0,0,0,.45,1.62,1.87,1.87,0,0,0,1.52.54,7.61,7.61,0,0,0,1.46-.2v2.48a8.88,8.88,0,0,1-2.35.33A3.83,3.83,0,0,1,176,43a5.38,5.38,0,0,1-1-3.53V28.28h-3.27V25.9H175V21.55Z"/><path class="cls-2" d="M195.45,39.1a2.27,2.27,0,0,0-.94-1.93A9,9,0,0,0,191.24,36a15,15,0,0,1-3.7-1.2,5.14,5.14,0,0,1-2-1.66,3.94,3.94,0,0,1-.66-2.29,4.67,4.67,0,0,1,1.87-3.73,7.31,7.31,0,0,1,4.78-1.53,7.52,7.52,0,0,1,4.95,1.58,5,5,0,0,1,1.9,4h-3.09A2.75,2.75,0,0,0,194.19,29a4,4,0,0,0-2.69-.92,4.26,4.26,0,0,0-2.63.73,2.31,2.31,0,0,0-.94,1.91,1.86,1.86,0,0,0,.88,1.68A10.5,10.5,0,0,0,192,33.49a16.09,16.09,0,0,1,3.73,1.23,5.42,5.42,0,0,1,2.12,1.72,4.2,4.2,0,0,1,.69,2.44,4.57,4.57,0,0,1-1.93,3.86,8.06,8.06,0,0,1-5,1.46,9,9,0,0,1-3.82-.77,6.19,6.19,0,0,1-2.6-2.13,5.1,5.1,0,0,1-.94-3h3.07a3.21,3.21,0,0,0,1.24,2.45,5.72,5.72,0,0,0,5.84.19A2.15,2.15,0,0,0,195.45,39.1Z"/></g><g id="Icon"><path class="cls-2" d="M66.15,31.31a8,8,0,0,0,1.3-7.37,7.91,7.91,0,0,0-5.38-5.21,7.92,7.92,0,0,0-1.82-7.27,8,8,0,0,0-5.93-2.63,8.27,8.27,0,0,0-1.11.07A8,8,0,0,0,41.12,3.53a8,8,0,0,0-13.24,0,8.08,8.08,0,0,0-4.25-1.23,8,8,0,0,0-7.86,6.61,7.91,7.91,0,0,0-7,2.57,7.88,7.88,0,0,0-1.81,7.27A8,8,0,0,0,1.54,24a7.9,7.9,0,0,0,1.31,7.38A8,8,0,0,0,0,38.29a8,8,0,0,0,4.2,6.22A8,8,0,0,0,10.86,56a8,8,0,0,0,3.29,6.73,8,8,0,0,0,7.42,1,8.06,8.06,0,0,0,5.74,4.82,8.5,8.5,0,0,0,1.66.17,8,8,0,0,0,5.55-2.24,8,8,0,0,0,5.53,2.24,7.83,7.83,0,0,0,1.67-.18,8,8,0,0,0,5.73-4.82,8,8,0,0,0,10.71-7.78,8,8,0,0,0,6.62-11.46,8,8,0,0,0,1.37-13.17ZM66.24,38a5.22,5.22,0,0,1-3.86,4.52l-2,.55,1.32,1.63a5.25,5.25,0,0,1-4.09,8.54,5.52,5.52,0,0,1-.81-.06l-2.07-.32.54,2a5.23,5.23,0,0,1-2,5.6,5.18,5.18,0,0,1-3.08,1,5.25,5.25,0,0,1-2.86-.84l-1.76-1.14-.33,2.07a5.21,5.21,0,0,1-4.09,4.31,5.08,5.08,0,0,1-1.1.12,5.23,5.23,0,0,1-4.39-2.39l-1.15-1.75-1.14,1.75A5.23,5.23,0,0,1,29,66a5,5,0,0,1-1.09-.11,5.21,5.21,0,0,1-4.09-4.31l-.33-2.07-1.77,1.14a5.24,5.24,0,0,1-7.92-5.75l.54-2-2.07.33a5.66,5.66,0,0,1-.82.06A5.24,5.24,0,0,1,7.34,44.7l1.31-1.63-2-.55a5.25,5.25,0,0,1-1-9.74l1.86-1L5.83,30.5a5.25,5.25,0,0,1,3-9.31l2.1-.11L10,19.2a5.23,5.23,0,0,1,4.67-7.62,5.48,5.48,0,0,1,1.88.34l2,.75-.11-2.1a5.26,5.26,0,0,1,5.23-5.52A5.31,5.31,0,0,1,27.35,6.6l1.5,1.49.75-2a5.28,5.28,0,0,1,4.9-3.38A5.22,5.22,0,0,1,39.4,6.1l.75,2,1.49-1.48A5.3,5.3,0,0,1,45.36,5a5.27,5.27,0,0,1,5.23,5.52l-.11,2.1,2-.75a5.23,5.23,0,0,1,1.88-.35,5.29,5.29,0,0,1,3.9,1.74A5.21,5.21,0,0,1,59,19.18l-1,1.87,2.1.12a5.25,5.25,0,0,1,3,9.31L61.54,31.8l1.87,1A5.21,5.21,0,0,1,66.24,38Z"/><path class="cls-2" d="M57.53,25a8,8,0,0,0-9.8,1.44,4.8,4.8,0,0,0-1.25,2.73,25.23,25.23,0,0,1-3,11.61l-1.56,2.53c-.22.31-.43.6-.65.88a8.8,8.8,0,0,1-13.06.52c-.54-.67-1.06-1.38-1.53-2.1L25.45,40.5c-.08-.17-.17-.34-.27-.54l0,0A24.92,24.92,0,0,1,22.7,31.3a13.56,13.56,0,0,1-2.43,2.42,27.59,27.59,0,0,0,2.34,7.22l.14.27.3.59L24.33,44l0,.05a27.49,27.49,0,0,0,1.76,2.41l.07.08a11.55,11.55,0,0,0,17.19-.65l0,0c.26-.33.5-.66.76-1l1.65-2.66,0-.07a28,28,0,0,0,3.19-10.22c.09-1.33.19-2.13.26-2.62a3.27,3.27,0,0,1,.53-1.09,5.3,5.3,0,0,1,3.71-1.53,5.22,5.22,0,0,1,2.61.71,5.08,5.08,0,0,1,1.45,1.24,5.23,5.23,0,0,1-6.7,1.23h0a9.51,9.51,0,0,0-.32,2.87,7.86,7.86,0,0,0,3,.57,8,8,0,0,0,6.92-4l.4-.69-.39-.68A8,8,0,0,0,57.53,25Z"/><path class="cls-2" d="M22.56,29.05a15.33,15.33,0,0,1,4.94-4,3,3,0,0,0,2.15.9,3,3,0,0,0,1.87-.66,4.36,4.36,0,0,0,6,0,3,3,0,0,0,1.83.62A3,3,0,0,0,41.5,25a15,15,0,0,1,3.74,2.71,8.87,8.87,0,0,1,1.5-2.35,17.93,17.93,0,0,0-4.44-3A3,3,0,0,0,39.36,20a2.89,2.89,0,0,0-.94.15,4.37,4.37,0,0,0-7.75,0,2.88,2.88,0,0,0-1-.18,3,3,0,0,0-2.94,2.43,17.86,17.86,0,0,0-5.44,4s-.64.88-1.73,2.18a5.23,5.23,0,0,1-6.7,1.23,5.37,5.37,0,0,1-1.45-1.24,5.23,5.23,0,0,1,6.7-1.23,1.64,1.64,0,0,1,.22.14c.43-.57,1.14-1.5,1.72-2.15-.19-.13-.37-.25-.57-.36A8,8,0,0,0,8.55,27.86l-.39.69.39.68a7.89,7.89,0,0,0,2.92,2.93,8,8,0,0,0,4,1.07h0a8,8,0,0,0,3.93-1,5.58,5.58,0,0,0,1-.69A28.26,28.26,0,0,0,22.56,29.05Z"/><path class="cls-2" d="M34.55,43.78c2.18,0,4-1.11,4.33-2.58H30.22C30.57,42.67,32.37,43.78,34.55,43.78Z"/></g></svg>