<?xml version="1.0" standalone="no"?>
<!DOCTYPE svg PUBLIC "-//W3C//DTD SVG 20010904//EN"
 "http://www.w3.org/TR/2001/REC-SVG-20010904/DTD/svg10.dtd">
<svg version="1.0" xmlns="http://www.w3.org/2000/svg"
 width="700.000000pt" height="700.000000pt" viewBox="0 0 700.000000 700.000000"
 preserveAspectRatio="xMidYMid meet">
<metadata>
Created by potrace 1.11, written by Peter Selinger 2001-2013
</metadata>
<g transform="translate(0.000000,700.000000) scale(0.100000,-0.100000)"
fill="#000000" stroke="none">
<path d="M3350 6986 c-202 -45 -375 -153 -493 -307 l-28 -37 -52 28 c-104 56
-278 98 -392 94 -271 -8 -512 -141 -660 -364 -56 -84 -107 -208 -119 -289 -2
-11 -31 -14 -132 -16 -97 -2 -147 -8 -202 -24 -292 -85 -513 -322 -575 -616
-16 -71 -17 -268 -2 -331 7 -30 6 -31 -62 -57 -199 -78 -379 -258 -453 -451
-46 -119 -59 -196 -55 -330 4 -169 46 -300 136 -432 l28 -41 -45 -44 c-107
-104 -195 -271 -229 -434 -14 -66 -14 -242 -1 -304 47 -214 174 -403 345 -513
36 -23 67 -42 68 -43 1 0 -11 -39 -27 -85 -35 -103 -44 -157 -44 -275 0 -106
8 -157 36 -245 55 -171 146 -298 293 -407 106 -80 234 -133 353 -149 29 -4 55
-11 59 -17 4 -6 7 -34 9 -61 10 -245 144 -490 342 -625 83 -56 150 -87 249
-117 137 -41 353 -36 473 11 11 4 22 -8 39 -42 133 -274 397 -447 701 -458
203 -8 391 55 546 181 23 19 45 34 51 34 5 0 20 -12 34 -26 64 -69 238 -154
366 -178 77 -14 257 -15 317 -2 242 55 477 238 566 439 11 24 21 45 24 48 3 3
38 -3 78 -13 87 -23 232 -30 324 -17 263 37 499 219 615 474 38 84 60 175 66
270 3 44 10 83 16 86 5 4 32 10 59 13 136 18 304 99 411 196 137 125 236 310
262 490 8 54 8 205 0 240 -3 14 -8 39 -11 55 -5 33 -41 139 -56 167 -6 12 -5
18 3 18 16 0 125 80 175 128 110 105 189 250 230 423 3 13 7 78 9 144 2 100
-1 137 -20 212 -13 49 -27 99 -33 109 -5 10 -20 39 -32 64 -33 66 -102 159
-153 209 l-45 43 36 57 c150 234 170 536 53 787 -30 64 -80 144 -110 176 -133
140 -228 204 -375 252 -15 5 -17 12 -11 39 12 53 15 248 4 307 -30 155 -108
307 -219 420 -164 169 -366 253 -593 247 l-97 -3 -11 41 c-20 79 -32 111 -66
180 -196 397 -675 560 -1075 367 l-77 -37 -60 71 c-104 124 -255 219 -416 260
-85 21 -268 26 -345 10z m261 -276 c87 -16 194 -75 263 -144 68 -68 115 -150
167 -293 l33 -92 106 102 c58 57 125 115 150 129 111 64 266 89 384 61 154
-36 296 -147 361 -284 45 -97 50 -125 50 -312 0 -86 3 -157 6 -157 4 0 47 15
95 34 132 50 181 63 262 65 303 9 550 -221 554 -517 1 -103 -18 -171 -87 -309
-36 -70 -63 -128 -62 -129 1 -1 55 -5 121 -8 151 -9 204 -20 295 -63 129 -61
237 -194 276 -339 34 -126 14 -281 -52 -400 -30 -55 -125 -154 -220 -229 -35
-28 -63 -52 -63 -55 0 -3 54 -34 120 -69 136 -72 219 -142 269 -225 169 -282
58 -645 -238 -777 -37 -16 -248 -79 -266 -79 -14 0 2 -25 70 -111 90 -112 118
-159 146 -248 20 -63 26 -175 14 -241 -40 -217 -218 -394 -433 -431 -61 -11
-190 -8 -252 6 -14 3 -49 8 -78 11 -53 6 -54 6 -46 -18 9 -29 34 -117 39 -141
2 -10 7 -28 11 -40 20 -63 20 -189 0 -268 -61 -237 -291 -412 -531 -402 -107
4 -195 36 -317 114 -59 38 -114 72 -121 75 -11 4 -18 -21 -32 -113 -29 -198
-66 -285 -166 -383 -165 -163 -414 -201 -621 -93 -87 46 -149 108 -238 242
-40 61 -75 111 -79 111 -3 0 -35 -46 -70 -101 -135 -213 -278 -307 -474 -313
-153 -6 -286 46 -391 150 -92 92 -140 194 -160 345 -4 25 -9 58 -11 72 -3 15
-7 39 -10 53 -2 15 -6 28 -7 30 -2 1 -55 -31 -117 -71 -138 -90 -214 -118
-332 -121 -141 -5 -241 29 -351 120 -175 144 -233 353 -166 595 16 58 31 119
35 135 l6 28 -44 -7 c-24 -4 -53 -9 -64 -11 -246 -46 -413 -5 -555 136 -114
114 -167 252 -157 410 9 141 44 218 164 368 41 52 71 97 67 102 -5 4 -56 20
-114 35 -240 63 -364 164 -437 354 -31 81 -40 235 -18 318 47 174 150 283 377
399 43 21 78 42 78 45 0 3 -27 27 -59 53 -106 82 -172 148 -212 210 -98 151
-112 346 -35 510 61 131 154 219 283 271 71 28 100 33 250 41 65 3 120 8 123
10 2 3 -21 53 -52 112 -73 139 -97 224 -93 333 11 294 247 516 539 508 94 -2
147 -15 271 -64 49 -19 94 -35 98 -35 5 0 7 62 4 138 -3 95 0 158 10 207 50
243 281 428 523 419 103 -3 140 -12 226 -54 66 -32 102 -59 185 -140 56 -55
105 -100 108 -100 3 0 23 48 45 108 75 209 172 322 333 390 98 42 205 52 314
32z"/>
<path d="M3400 5179 c-19 -5 -42 -11 -51 -13 -64 -16 -169 -98 -220 -172 -27
-39 -32 -42 -55 -34 -64 25 -181 1 -251 -49 -47 -34 -95 -99 -112 -154 -10
-28 -23 -42 -54 -58 -51 -26 -180 -101 -187 -109 -3 -3 -34 -26 -70 -52 -102
-72 -232 -200 -322 -316 -167 -217 -246 -279 -409 -318 -88 -22 -243 -6 -328
33 -76 35 -191 127 -191 152 0 19 111 109 171 139 155 76 345 75 486 -3 l42
-23 64 82 c36 44 74 92 86 105 27 31 18 42 -68 86 -267 134 -572 115 -823 -51
-86 -57 -203 -184 -247 -267 l-35 -64 49 -79 c63 -103 198 -237 288 -286 64
-35 160 -75 202 -84 204 -45 400 -23 565 64 112 59 168 110 333 302 159 186
293 303 457 401 l67 40 52 -36 c104 -69 225 -75 328 -15 l32 19 58 -38 c90
-59 144 -75 248 -75 108 0 170 18 248 75 l56 39 33 -18 c104 -58 236 -48 335
25 l33 24 64 -36 c35 -20 70 -42 76 -50 7 -8 16 -15 21 -15 13 0 95 -64 157
-121 28 -27 54 -49 56 -49 3 0 23 35 46 78 23 43 55 93 71 111 16 19 29 39 28
45 -1 27 -236 197 -368 267 -67 36 -69 37 -100 109 -52 118 -159 181 -298 176
l-74 -3 -33 47 c-34 47 -97 102 -151 132 -80 43 -217 60 -305 37z"/>
<path d="M5305 4560 c-113 -17 -266 -82 -360 -153 -98 -75 -189 -194 -219
-290 -7 -21 -14 -100 -21 -232 -3 -55 -7 -109 -9 -121 -2 -12 -7 -45 -11 -75
-25 -205 -130 -542 -236 -752 -50 -100 -200 -345 -249 -407 -291 -368 -807
-451 -1199 -193 -239 158 -526 666 -636 1128 -21 89 -27 117 -40 190 -2 11 -6
50 -10 87 l-7 66 -123 -124 -123 -123 24 -106 c83 -370 244 -732 457 -1033
111 -156 182 -227 322 -323 331 -226 803 -251 1170 -61 117 61 185 112 296
222 90 90 121 131 219 285 62 99 133 218 156 265 145 290 252 671 279 995 16
189 25 237 55 295 36 70 150 144 270 175 62 16 196 17 255 2 94 -24 216 -97
264 -159 l21 -26 -41 -41 c-144 -140 -355 -190 -539 -126 -41 14 -82 28 -91
31 -13 5 -18 -8 -27 -68 -10 -63 -17 -167 -13 -205 0 -7 34 -22 74 -34 102
-32 303 -36 414 -8 218 55 424 215 532 412 l24 44 -48 74 c-56 88 -199 231
-278 278 -67 39 -151 74 -233 96 -66 18 -243 26 -319 15z"/>
<path d="M3075 2783 c20 -83 161 -196 270 -218 17 -3 41 -9 55 -12 14 -3 63
-6 110 -6 207 1 375 94 429 236 l11 27 -441 0 -441 0 7 -27z"/>
</g>
</svg>
