<?xml version="1.0" standalone="no"?>
<!DOCTYPE svg PUBLIC "-//W3C//DTD SVG 20010904//EN"
 "http://www.w3.org/TR/2001/REC-SVG-20010904/DTD/svg10.dtd">
<svg version="1.0" xmlns="http://www.w3.org/2000/svg"
 width="150.000000pt" height="150.000000pt" viewBox="0 0 150.000000 150.000000"
 preserveAspectRatio="xMidYMid meet">
<metadata>
Created by potrace 1.11, written by Peter Selinger 2001-2013
</metadata>
<g transform="translate(0.000000,150.000000) scale(0.100000,-0.100000)"
fill="#000000" stroke="none">
<path d="M449 1460 c-1 -3 -1 -9 0 -14 1 -5 -5 -3 -14 4 -8 7 -18 10 -22 6 -3
-3 -1 -6 5 -6 7 0 12 -4 12 -9 0 -5 -9 -7 -20 -4 -11 3 -20 0 -20 -6 0 -6 -6
-10 -12 -8 -7 1 -12 -4 -10 -10 1 -7 -3 -13 -9 -13 -5 0 -7 -5 -3 -12 5 -8 2
-9 -9 -5 -12 5 -17 1 -17 -13 0 -11 -5 -20 -11 -20 -6 0 -9 -7 -5 -15 3 -8 2
-15 -3 -15 -5 0 -11 -9 -14 -21 -4 -15 -2 -19 8 -15 9 3 12 0 8 -9 -3 -8 -10
-12 -17 -8 -6 4 -5 -1 3 -10 11 -14 11 -18 -5 -24 -19 -7 -87 -73 -76 -73 3 0
-3 -6 -13 -14 -14 -10 -19 -27 -20 -75 0 -34 3 -65 8 -68 5 -3 3 -9 -4 -14
-10 -6 -11 -9 -2 -9 8 0 3 -10 -10 -22 -12 -13 -25 -23 -29 -23 -4 0 -14 -9
-23 -20 -9 -11 -13 -14 -9 -6 5 10 3 12 -5 7 -7 -5 -10 -14 -7 -22 3 -8 0 -13
-6 -11 -7 1 -13 -4 -14 -10 -1 -7 -2 -18 -3 -24 0 -5 -6 -7 -13 -3 -7 4 -8 3
-4 -4 4 -7 4 -18 0 -24 -5 -7 -10 -46 -12 -86 -4 -66 -2 -75 19 -93 12 -10 26
-19 31 -19 5 0 6 -6 2 -12 -4 -7 1 -5 12 4 24 21 35 23 45 6 7 -10 9 -9 9 5 0
9 4 17 10 17 5 0 14 -8 20 -17 11 -17 11 -17 6 -1 -4 13 0 18 17 17 35 -1 62
8 60 19 -2 6 4 9 13 5 9 -3 12 -9 7 -12 -17 -12 -14 -41 4 -41 17 -1 17 -1 1
-11 -20 -11 -24 -39 -7 -39 8 0 7 -6 -2 -17 -12 -14 -12 -16 0 -8 11 6 13 4 8
-8 -3 -9 -1 -19 5 -23 7 -5 5 -12 -7 -21 -12 -8 -14 -13 -6 -13 9 0 12 -10 9
-31 -3 -18 0 -33 6 -35 7 -3 13 -18 14 -35 1 -17 14 -46 28 -65 15 -19 23 -34
18 -34 -4 0 1 -7 12 -15 10 -8 15 -15 9 -15 -5 0 2 -8 15 -17 14 -10 28 -17
33 -15 4 1 7 -5 7 -14 0 -8 5 -12 10 -9 6 3 10 -1 10 -9 0 -8 5 -18 12 -22 7
-5 9 -2 4 7 -4 8 2 3 13 -10 12 -13 21 -18 21 -11 0 7 6 5 16 -5 9 -9 29 -19
45 -22 16 -3 29 -10 29 -15 0 -6 6 -8 14 -5 8 3 17 1 20 -6 2 -7 5 -7 5 -2 1
13 81 6 81 -7 0 -5 5 -6 10 -3 6 4 8 11 5 16 -3 5 1 6 9 3 9 -3 13 -11 10 -18
-3 -6 2 -2 10 8 9 11 16 15 16 9 0 -8 9 -9 31 -3 17 5 34 9 38 8 16 -3 40 15
34 26 -4 6 2 4 12 -4 15 -12 17 -12 10 -1 -6 11 -4 13 8 8 12 -4 17 -1 17 11
0 15 2 15 10 2 9 -13 14 -8 12 12 -1 3 5 9 14 12 8 3 12 1 9 -4 -3 -6 1 -7 9
-4 9 3 13 10 10 16 -3 5 3 12 15 15 11 3 18 9 15 14 -3 5 0 10 5 10 6 1 17 2
24 3 6 0 12 12 12 26 0 17 6 25 16 24 10 -1 16 6 15 20 -1 11 10 31 23 44 15
14 19 22 10 22 -8 0 -10 3 -4 8 6 4 12 16 13 27 2 11 8 23 14 26 5 3 9 9 9 13
-1 3 -1 7 -1 9 7 58 6 126 -2 121 -6 -4 -6 1 1 13 7 14 7 24 -2 33 -9 10 -9
11 1 6 6 -4 12 -2 12 3 0 6 -6 11 -12 11 -9 0 -8 4 2 10 20 13 101 10 93 -3
-4 -6 -1 -7 7 -2 7 4 16 2 21 -6 6 -10 9 -11 9 -1 0 6 5 12 11 12 5 0 8 -4 5
-9 -7 -11 50 -8 61 3 5 5 2 6 -6 1 -9 -5 -12 -4 -8 3 4 5 16 8 27 5 15 -4 19
-2 14 10 -3 8 0 18 7 23 8 5 10 3 4 -6 -6 -9 -4 -11 4 -5 9 5 10 10 2 18 -6 6
-7 16 -1 27 5 9 5 22 0 30 -5 8 -4 22 2 33 7 14 7 17 -1 13 -7 -5 -10 3 -7 23
2 23 -1 31 -13 31 -14 0 -14 2 -1 10 10 6 11 10 3 10 -7 0 -13 7 -13 16 0 8
-4 13 -9 10 -5 -3 -12 1 -15 10 -4 10 -2 13 6 8 7 -5 8 -3 4 5 -5 7 -14 10
-21 7 -19 -7 -27 5 -13 21 8 11 7 12 -6 7 -9 -3 -16 -1 -16 4 0 6 -10 12 -22
14 -22 3 -34 33 -17 44 13 8 11 88 -3 102 -9 9 -9 12 1 12 10 0 11 3 2 13 -6
8 -8 17 -4 20 3 4 -1 7 -10 7 -10 0 -17 8 -17 18 0 10 -10 23 -22 28 -13 6
-17 9 -10 7 24 -5 11 8 -19 19 -22 7 -27 14 -20 21 6 6 11 16 11 22 0 5 -5 3
-10 -5 -8 -11 -10 -5 -8 24 1 24 -2 41 -10 44 -7 2 -10 7 -7 12 3 5 -3 16 -12
26 -10 10 -18 20 -18 23 0 15 -45 47 -64 46 -15 -1 -18 2 -11 10 14 16 0 27
-17 14 -7 -6 -13 -8 -13 -3 0 10 -87 9 -112 -1 -10 -4 -16 -11 -13 -15 3 -4
-8 -7 -25 -6 -16 1 -32 -3 -34 -8 -2 -6 -5 -5 -5 2 -1 7 -6 10 -13 6 -7 -5 -9
-2 -6 8 5 11 0 14 -18 12 -13 -1 -24 1 -24 6 0 5 -8 7 -17 5 -10 -2 -18 -4
-18 -5 0 -1 -10 -3 -23 -6 -14 -2 -21 0 -17 6 3 6 -1 7 -10 4 -9 -4 -14 -12
-12 -19 3 -6 -1 -12 -9 -12 -7 0 -10 5 -7 11 4 6 -1 5 -10 -2 -9 -8 -25 -11
-38 -7 -15 5 -19 4 -14 -5 6 -9 3 -9 -13 -1 -12 6 -24 16 -27 21 -4 6 -11 8
-16 5 -5 -4 -9 -2 -9 2 0 9 -79 12 -81 3z m62 -100 c12 7 19 7 19 1 0 -6 7 -7
17 -4 11 4 14 3 9 -5 -6 -11 5 -17 27 -13 4 0 6 -2 6 -6 -3 -21 3 -24 18 -12
14 12 16 12 8 0 -6 -11 -4 -13 11 -7 10 5 25 9 32 9 6 0 12 6 12 13 0 7 5 16
12 20 7 5 8 3 3 -7 -5 -8 2 -5 15 6 14 12 20 14 15 5 -6 -12 -5 -13 5 -3 8 7
19 9 29 4 9 -5 24 -7 34 -6 9 2 15 0 13 -4 -3 -4 4 -15 14 -24 11 -9 22 -12
24 -8 3 5 18 7 33 5 19 -2 34 4 46 19 10 12 15 15 11 7 -5 -9 1 -8 16 5 16 14
24 16 27 8 3 -9 10 -10 24 -3 14 8 19 7 19 -2 0 -9 3 -9 10 2 8 13 10 13 10
-2 0 -9 8 -19 18 -22 10 -4 19 -12 20 -19 8 -74 7 -107 -4 -107 -7 0 0 -13 14
-30 15 -16 35 -30 46 -30 24 0 66 -45 66 -71 0 -13 5 -18 13 -14 6 4 1 -3 -13
-15 -16 -14 -19 -20 -8 -16 10 3 20 0 24 -6 4 -6 3 -8 -2 -5 -6 3 -16 2 -24
-4 -11 -6 -11 -9 -2 -9 7 0 1 -13 -14 -29 -16 -18 -33 -28 -45 -26 -10 2 -19
-1 -19 -7 0 -7 -7 -5 -17 4 -30 25 -47 33 -38 17 4 -8 -2 -4 -14 9 -15 15 -29
21 -42 17 -11 -4 -19 -2 -19 5 0 6 4 9 8 6 4 -2 14 0 22 5 12 7 10 8 -7 6 -11
-2 -29 -9 -39 -17 -11 -9 -15 -10 -10 -2 16 27 -3 10 -24 -20 -19 -30 -21 -30
-16 -8 3 14 3 19 0 12 -3 -7 -15 -17 -26 -23 -11 -6 -18 -7 -15 -2 3 4 -5 8
-18 8 -13 0 -21 -4 -18 -8 3 -5 -4 -3 -16 5 -12 7 -21 18 -21 25 0 6 -11 10
-25 8 -18 -2 -23 1 -15 10 7 8 2 10 -21 7 -21 -3 -33 -12 -40 -29 -5 -13 -13
-21 -19 -18 -5 3 -19 1 -31 -6 -15 -7 -19 -8 -15 0 5 8 0 8 -18 1 -22 -8 -28
-6 -38 10 -7 11 -19 20 -26 20 -7 0 -25 8 -39 18 -19 12 -25 13 -18 3 6 -11 4
-13 -9 -8 -13 5 -17 3 -13 -7 4 -10 1 -13 -9 -9 -7 3 -14 0 -14 -6 0 -6 -5
-11 -11 -11 -5 0 -7 6 -3 13 4 7 3 9 -2 4 -5 -5 -9 -14 -9 -20 0 -6 -17 -13
-39 -15 -31 -2 -37 0 -32 13 3 9 2 13 -4 10 -14 -9 -50 17 -50 37 0 9 -5 20
-10 23 -8 5 -7 11 1 21 9 11 8 14 -2 14 -9 1 -8 5 5 15 11 8 14 15 8 15 -10 0
-10 3 0 14 7 7 19 11 26 9 8 -4 10 0 6 11 -4 9 -3 16 2 15 5 -1 12 0 17 1 13
4 27 7 39 9 6 0 8 4 5 8 -4 3 1 12 11 20 16 14 16 14 -3 9 -18 -6 -19 -5 -3 7
14 11 15 16 5 27 -10 10 -9 11 3 5 12 -6 13 -5 3 6 -7 7 -13 17 -13 22 0 4 6
5 13 1 9 -5 9 -4 1 5 -9 10 -8 20 3 42 14 27 53 59 53 42 0 -4 6 -1 12 5 8 8
14 9 16 2 3 -7 10 -7 23 0z m-15 -469 c-3 -5 1 -11 9 -14 10 -4 12 -1 9 11 -5
15 -4 15 8 2 7 -8 24 -16 38 -18 13 -1 27 -6 30 -10 8 -12 38 -13 45 -2 9 14
27 12 20 -2 -4 -7 -1 -6 7 3 7 9 21 15 31 13 9 -1 15 1 12 6 -3 4 6 10 20 12
15 3 22 1 18 -5 -4 -6 2 -8 15 -5 12 4 25 2 28 -4 3 -5 12 -7 18 -5 7 3 19 1
27 -5 11 -8 10 -9 -3 -4 -24 7 -23 -1 2 -14 11 -6 20 -7 19 -3 -3 20 2 27 11
13 8 -13 10 -12 10 3 0 19 15 23 26 5 5 -7 3 -8 -6 -3 -9 6 -11 4 -5 -4 5 -9
12 -7 26 8 22 24 39 27 40 9 0 -10 2 -10 6 0 2 6 14 12 24 12 11 0 18 -4 15
-8 -3 -5 1 -9 9 -9 8 0 15 4 15 9 0 5 6 3 14 -4 8 -7 11 -17 8 -23 -3 -5 1 -4
10 2 17 15 29 7 21 -13 -3 -8 1 -14 8 -14 10 0 10 -3 2 -11 -7 -7 -8 -20 -3
-34 6 -15 4 -27 -3 -34 -9 -9 -8 -14 3 -21 10 -6 11 -10 3 -10 -8 0 -10 -7 -5
-22 9 -29 9 -49 -2 -67 -5 -8 -3 -16 5 -22 8 -5 9 -9 4 -9 -6 0 -11 -11 -11
-25 0 -14 4 -25 10 -25 6 0 5 -5 -2 -12 -8 -8 -9 -15 -1 -25 8 -9 8 -13 0 -13
-6 0 -9 -13 -7 -30 2 -16 -1 -30 -6 -30 -6 0 -8 -9 -5 -20 3 -11 0 -23 -5 -27
-7 -4 -8 -1 -3 7 5 8 4 11 -3 6 -6 -3 -9 -15 -7 -26 2 -11 0 -20 -6 -20 -5 0
-8 -6 -7 -13 2 -6 -3 -11 -10 -9 -8 1 -11 -2 -8 -7 8 -12 -91 -118 -100 -108
-4 4 -2 7 4 7 7 0 12 6 12 13 -1 7 -8 4 -18 -8 -21 -24 -68 -52 -57 -35 4 7
-5 4 -21 -6 -15 -11 -25 -13 -21 -6 5 6 4 12 -2 12 -6 0 -11 -4 -11 -9 0 -5
-12 -8 -27 -5 -22 4 -24 3 -15 -9 10 -12 8 -14 -14 -11 -15 1 -31 9 -35 16 -7
10 -9 10 -9 -2 0 -10 -3 -11 -8 -3 -4 6 -26 14 -48 16 -40 5 -84 22 -84 33 0
3 6 2 13 -2 6 -4 8 -3 4 1 -4 5 -15 10 -24 11 -9 2 -20 10 -25 18 -5 9 -16 16
-23 16 -8 0 -15 6 -15 13 0 8 -10 19 -22 25 -13 6 -17 11 -9 11 10 1 7 7 -7
20 -12 10 -23 30 -24 45 -2 17 -7 25 -16 21 -7 -2 -10 0 -7 5 3 6 3 16 -2 23
-12 20 -12 38 0 30 9 -5 9 -3 1 8 -16 21 -13 375 3 372 7 -2 10 4 7 12 -4 9 0
15 7 16 30 1 52 8 62 18 13 13 20 14 13 2z m-242 -28 c-5 -17 -5 -17 6 0 17
26 30 11 30 -34 0 -25 -7 -46 -19 -58 -11 -11 -17 -21 -15 -24 3 -2 -2 -7 -11
-10 -8 -4 -15 -2 -15 4 0 5 -6 4 -14 -3 -8 -7 -12 -15 -11 -18 2 -3 -9 -6 -25
-5 -15 0 -26 3 -24 7 2 4 0 9 -5 12 -11 7 -2 46 11 46 5 0 7 4 4 9 -8 12 12
66 21 57 3 -3 12 3 20 14 18 26 55 27 47 3z m371 -1 c-3 -3 -11 0 -18 7 -9 10
-8 11 6 5 10 -3 15 -9 12 -12z m649 -10 c6 -11 16 -21 21 -21 15 0 24 -44 12
-59 -7 -9 -6 -11 4 -7 10 4 15 -2 16 -15 1 -11 -3 -20 -8 -20 -6 0 -7 5 -3 12
4 7 3 8 -5 4 -8 -5 -9 -12 -2 -19 6 -9 2 -12 -16 -13 -16 -1 -23 2 -19 11 3 9
-2 11 -16 7 -15 -4 -19 -2 -14 7 6 8 2 11 -10 9 -12 -2 -18 2 -16 10 1 8 -2
11 -7 8 -5 -4 -12 -2 -16 4 -4 6 -10 8 -14 6 -4 -3 -8 1 -8 9 0 8 4 12 8 9 4
-2 7 5 6 16 -1 11 -5 20 -9 20 -10 0 3 33 16 42 20 13 68 1 80 -20z m-1159
-222 c3 -6 -1 -7 -9 -4 -18 7 -21 14 -7 14 6 0 13 -4 16 -10z m200 -50 c3 -5
1 -10 -4 -10 -6 0 -11 5 -11 10 0 6 2 10 4 10 3 0 8 -4 11 -10z m39 -246 c3
-8 2 -12 -4 -9 -6 3 -10 10 -10 16 0 14 7 11 14 -7z"/>
<path d="M539 777 c9 -12 10 -17 2 -17 -7 0 -10 -4 -7 -9 4 -5 1 -11 -5 -13
-8 -3 -6 -10 5 -21 9 -9 18 -20 19 -24 1 -4 5 -7 10 -5 4 1 7 -3 7 -9 0 -5 5
-7 10 -4 6 4 8 11 5 16 -3 5 0 6 8 3 15 -5 30 10 33 34 1 6 -2 10 -7 6 -8 -5
-13 9 -10 29 0 4 -8 8 -19 8 -29 2 -33 3 -50 14 -13 8 -13 7 -1 -8z m81 -61
c0 -3 -4 -8 -10 -11 -5 -3 -10 -1 -10 4 0 6 5 11 10 11 6 0 10 -2 10 -4z"/>
<path d="M872 763 c-6 -2 -9 -9 -6 -14 3 -6 1 -16 -5 -23 -8 -10 -7 -17 4 -26
8 -7 12 -17 8 -23 -4 -7 0 -8 11 -4 10 4 20 7 22 7 3 0 2 6 -2 13 -6 9 -4 9 8
-1 13 -10 17 -10 24 5 11 26 13 53 2 53 -5 0 -6 5 -3 10 6 10 -39 13 -63 3z"/>
<path d="M405 440 c3 -5 8 -10 11 -10 2 0 4 5 4 10 0 6 -5 10 -11 10 -5 0 -7
-4 -4 -10z"/>
<path d="M609 405 c-1 -5 -1 -14 0 -19 1 -4 -4 -15 -11 -24 -10 -12 -10 -14 0
-8 6 4 12 3 12 -1 0 -5 -6 -15 -12 -22 -9 -9 -9 -12 -1 -7 6 3 13 -1 15 -10 4
-22 57 -28 65 -8 3 7 10 11 16 7 6 -4 8 0 4 10 -3 9 -2 19 3 22 6 4 10 12 10
18 0 7 -4 6 -10 -3 -9 -13 -10 -13 -10 1 0 8 6 21 13 28 10 10 9 11 -4 6 -10
-4 -20 -2 -24 4 -9 15 -45 14 -45 -1 0 -9 -4 -8 -10 2 -5 8 -10 11 -11 5z"/>
<path d="M792 388 c-4 -48 -1 -73 8 -76 6 -2 7 -9 3 -15 -4 -7 2 -5 12 3 11 9
16 10 11 3 -10 -17 0 -16 27 2 16 10 22 24 22 48 -1 45 -11 57 -48 57 -27 0
-33 -4 -35 -22z"/>
<path d="M770 379 c0 -5 5 -7 10 -4 6 3 10 8 10 11 0 2 -4 4 -10 4 -5 0 -10
-5 -10 -11z"/>
<path d="M1206 858 c3 -5 10 -6 15 -3 13 9 11 12 -6 12 -8 0 -12 -4 -9 -9z"/>
<path d="M1250 861 c0 -6 4 -13 10 -16 6 -3 7 1 4 9 -7 18 -14 21 -14 7z"/>
<path d="M565 1461 c-3 -5 -2 -12 3 -15 5 -3 9 1 9 9 0 17 -3 19 -12 6z"/>
<path d="M287 499 c7 -7 15 -10 18 -7 3 3 -2 9 -12 12 -14 6 -15 5 -6 -5z"/>
</g>
</svg>
